<svg id="Laag_1" data-name="Laag 1" xmlns="http://www.w3.org/2000/svg" viewBox="0 0 739.39 304.56"><defs><style>.cls-1{fill:#fff;}.cls-2{fill:none;stroke:#1d1d1b;stroke-miterlimit:10;}.cls-3{fill:#da017a;}.cls-4{fill:#029dd9;}.cls-5{fill:#fddc05;}</style></defs><title>CMYKDeflogo_white_cmyk</title><path class="cls-1" d="M49.93,165.31c2.94,13.43,5.38,26.91,7.65,40.41s4.35,27,6.2,40.58,3.6,27.12,5.16,40.71,3,27.2,4.17,40.83l-3.88-2.95,14.53-1.65,14.55-1.46,14.58-1.25c4.87-.36,9.74-.72,14.63-.95-4.75,1.21-9.5,2.3-14.27,3.38L99,326l-14.34,2.89-14.37,2.68-3.32.63-.56-3.58c-2.11-13.52-4-27.07-5.73-40.64s-3.31-27.15-4.75-40.76S53.25,220,52.17,206.38,50.29,179.05,49.93,165.31Z" transform="translate(-49.93 -165.31)"/><path class="cls-1" d="M113.25,334.53q3.42,5.21,6.73,10.47c2.23,3.49,4.4,7,6.57,10.55l-2.59-.13q3.06-5,6.22-10l6.28-10c4.27-6.59,8.47-13.24,12.79-19.8v3.52l-11.87-17-11.69-17.11q-11.66-17.12-23-34.49T80.44,215.61L75,206.8l-5.36-8.88Q64.28,189,59.14,180q6.47,8.13,12.68,16.43l6.22,8.3,6.14,8.35q12.22,16.74,24.06,33.75t23.4,34.2l11.49,17.23,11.3,17.37,1.19,1.83-1.2,1.69c-4.55,6.41-9.22,12.72-13.83,19.09l-7,9.47q-3.51,4.74-7.09,9.43l-1.55,2L123.88,357c-1.81-3.72-3.63-7.45-5.39-11.2S115,338.32,113.25,334.53Z" transform="translate(-49.93 -165.31)"/><path class="cls-1" d="M73.45,192.27q13.9,14.6,27.64,29.34c9.18,9.81,18.26,19.71,27.36,29.58L155.63,281l27,29.91-2.74-.91L226.2,300,225,305.34l-42.07-33.47c-13.94-11.26-27.95-22.42-41.83-33.76l-20.84-17L99.46,204.06c-13.79-11.45-27.59-22.88-41.21-34.54C72.72,180.1,87,190.92,101.33,201.7L122.71,218,144,234.38c14.23,10.9,28.3,22,42.46,33l42.23,33.26,5.06,4-6.31,1.31-46.37,9.65-1.66.35-1.09-1.25-26.51-30.34-26.34-30.49c-8.74-10.21-17.49-20.39-26.15-30.66S82,202.63,73.45,192.27Z" transform="translate(-49.93 -165.31)"/><polygon class="cls-1" points="126.47 153.51 117.31 142.24 120.78 152.28 81.3 197.46 126.46 153.52 126.46 153.52 126.47 153.51"/><path class="cls-1" d="M417.8,290.4a1.3,1.3,0,0,1-.17.51,1.4,1.4,0,0,0-.17.51,4.44,4.44,0,0,1-2-.85,3.55,3.55,0,0,0-1.19-.85c-.79.46-1.42.83-1.87,1.11s-.87.56-1.27.84a1.18,1.18,0,0,0-.59.94,7,7,0,0,0,.59,1.78,7.14,7.14,0,0,1,.59,1.78,10.18,10.18,0,0,1-.67,2.63,15.7,15.7,0,0,0-.85,4q-.85-.85-1-5.94a7,7,0,0,0-.85-2.72,9.2,9.2,0,0,0-6.78-2.54h-1.19a2.89,2.89,0,0,1-1.36.17,8.87,8.87,0,0,1-2.2-.6,9,9,0,0,0-2.38-.59,25.2,25.2,0,0,0-7.29,3.06,7.36,7.36,0,0,0-2.21-2c-.68.23-1,.62-1,1.19s.11,1,.68,1.52L384,296a8.49,8.49,0,0,1-.42-1.19c-.17-.56-.37-1.3-.6-2.2-.22-.68-1.24-1-3-1a16.67,16.67,0,0,0-2.29.25,17.32,17.32,0,0,1-2.29.26,3.27,3.27,0,0,1-3.56-2.55,6.37,6.37,0,0,0,2.54.51q-.51,0,1.44-.51c1.3-.33,3.42-.79,6.37-1.35q-.69-3.74-4.58-9.33-4.94-7.47-10-7.47a.55.55,0,0,0-.51.34.55.55,0,0,1-.51.34l-.68-.34-.93-.42-1.45-.6a14,14,0,0,0-2.88-1.52,24.52,24.52,0,0,0-8.14,2q-.67.18-2.55,4.75c0-.56-.9-1.18-2.71-1.86a9.62,9.62,0,0,1-.59,1.61c-.29.62-.66,1.38-1.11,2.29q-3.9.35-3,3.73-3.74-1-7.8,7.8a.73.73,0,0,1,.16.51q0,1.88-4.07,10.18a4.2,4.2,0,0,1,.17,1.7,28.13,28.13,0,0,1-1,6.1c-.23,1.48-.43,2.66-.6,3.57a12.36,12.36,0,0,0-.25,2.2c0,.23.31.68.93,1.36a5.25,5.25,0,0,1,1.1,1.53,43.32,43.32,0,0,0-.51,7.8c.45,2.27.79,4.1,1,5.51a9.72,9.72,0,0,1,.17,3l9.33,8.66q8.82,8.13,10,8.14l2.21-1.87q4.41,4.92,6.61,4.92a11.43,11.43,0,0,0,2.55-1.18,10.14,10.14,0,0,1,2.88-1.36,4.48,4.48,0,0,1,1.27.34,4.91,4.91,0,0,0,1.28.34q3.39,0,7.29-5.43c.57-.79,1.21-1.73,1.95-2.8s1.55-2.35,2.46-3.82l-.17-5.6a3,3,0,0,1-1.19.51c-.67,0-1.75-1-3.22-3.05a5.83,5.83,0,0,1,1.78.51,5.83,5.83,0,0,0,1.78.51,2.48,2.48,0,0,0,1.7-.85c-.11-.45-.85-.85-2.21-1.19q3.06-.67,3.06-7.46,0,1.18-1.53-3.23a6.49,6.49,0,0,0,1.19-.17,7.4,7.4,0,0,1,1.19-.17c-.34.57-.34,2,0,4.24a7.54,7.54,0,0,1-.51,4.42c1,1.13,1.69,1.69,2,1.69a3.86,3.86,0,0,0,1.36-.34,4,4,0,0,1,1.36-.34,1.9,1.9,0,0,1,1.19.68,2.31,2.31,0,0,0,.84-1.36,3.41,3.41,0,0,1-.42-.59,6.49,6.49,0,0,0-.93-1.1q.51-.16.51-1a8.85,8.85,0,0,0,1,1.53c.45.56,1.08,1.3,1.87,2.2a2.68,2.68,0,0,0,.68-.51,3.74,3.74,0,0,1,1-.67,2.58,2.58,0,0,0,1.86.84,3.23,3.23,0,0,0,2-1.19c.22-.22.51-.22.85,0s.7.51,1.1.85.76.68,1.1,1a1.38,1.38,0,0,0,.85.51c2.71,0,4.3-.23,4.75-.68,1.13-.79,1.7-2.65,1.7-5.6a2.25,2.25,0,0,1,1.35,2.38v2.2c0,1.82,1,2.72,2.89,2.72a8,8,0,0,0,1.78-.34,8,8,0,0,1,1.78-.34,3.89,3.89,0,0,1,2.71,1.36c-.22.68-1.24,1-3,1a4.1,4.1,0,0,1-1.53-.17h-1.69c-2.83,0-4.36,1.14-4.58,3.4q-.35,5.94-1,7.12.84,3.23-3.9,10.18c-.91,1.25-2,2.89-3.23,4.92s-2.77,4.41-4.58,7.13q-2.2.67-6.95,4.24c-1,1.35-4.53,3.17-10.52,5.43q-7.64,3.21-11.88,3.22a1.87,1.87,0,0,1-.93-.42,1.82,1.82,0,0,0-.93-.43,1.47,1.47,0,0,0-1,.51l-.68.68-1.19-1.19c-.79.79-2.2,1.19-4.24,1.19a10.16,10.16,0,0,1-2.12-.34,10.16,10.16,0,0,0-2.12-.34c-.57,0-1,.45-1.19,1.36a5.84,5.84,0,0,1-1,2.37c-.8-.11-1.42-.9-1.87-2.37a10.19,10.19,0,0,1-.51-1.61c-.11-.51-.23-.94-.34-1.28a2.86,2.86,0,0,1-.34-.84,3.17,3.17,0,0,0-1.69,1.52h-1.36q-.68-2.88-9.5-5.26a94.83,94.83,0,0,0-11-5.94q-3.73.69-8.65-7.46c-.68-1.92-1.58-4.3-2.71-7.12s-2.49-6.05-4.07-9.67a17.7,17.7,0,0,0-.51-4.58q-.34-2.21-.6-3.48a10.69,10.69,0,0,1-.25-1.95c0-1.81-.06-3.71-.17-5.69s-.29-4.09-.51-6.36c-.11-.56-.26-1.47-.43-2.71s-.42-2.83-.76-4.75-.42-3.34-.59-4.58a23.66,23.66,0,0,1-.26-3.06q0-5.09,6.11-20.18,6.11-15.27,8.31-15.1a2.29,2.29,0,0,1-.17-1.19l-.85-1.7q5.77-10.85,20.19-14.25c.11-.45.23-1,.34-1.52s.28-1.25.51-2h1.36a5.75,5.75,0,0,0,.85,1.7,3.82,3.82,0,0,1,2.54-1,25.4,25.4,0,0,0,10.35-2.38l1.7-.84q-3.92,0,4.58,1.52a83.47,83.47,0,0,0,11.53,1.53,9.2,9.2,0,0,0,1.45-.17,9,9,0,0,1,1.44-.17l6.78,2.38q3.39,1.19,5.18,1.86c1.18.45,1.89.74,2.12.85q13.07,7.47,15.77,13.4l.51.51.68.68a4.08,4.08,0,0,1,.68,1c1.24,1.24,1.81,2.2,1.7,2.88a5.39,5.39,0,0,0,.84.34,11.59,11.59,0,0,0,1.36.34c.68.23,1,1,1,2.38a9.4,9.4,0,0,1-.59,2.2,9,9,0,0,0-.6,2.21,14.37,14.37,0,0,0,1.19,4.75c.45,1.24.82,2.23,1.1,3a4.43,4.43,0,0,0,.77,1.45A28.57,28.57,0,0,1,417.8,290.4Zm-110.27,2.72a12.26,12.26,0,0,0-1.69,5.42c0,.23.28.63.84,1.19q.17-.33.51-.93c.23-.4.51-.93.85-1.61Zm-.34,22.39c-.23-1.13-.45-2.49-.67-4.07s-.46-3.34-.68-5.26c.11-.23.17,3,.17,9.67A4.89,4.89,0,0,1,307.19,315.51Zm3.4,7.12c-1.7,0-2.55,1-2.55,2.89l1,8.14c.11-1.13.2-2.15.25-3.05s.09-1.75.09-2.55V326.2A8.07,8.07,0,0,1,310.59,322.63Zm.5,18.5a2.69,2.69,0,0,0-.5-.68c-.23-.23-.46-.45-.68-.68a.46.46,0,0,0-.17.34,2.44,2.44,0,0,1-.17,1Zm2-55.48a10.33,10.33,0,0,1-.25-1.61c-.06-.62-.09-1.38-.09-2.29-1.24.57-1.7,1-1.36,1.19A7.91,7.91,0,0,0,313.13,285.65Zm-1.7,32.07a1.37,1.37,0,0,0,.85-.17l.51-.17-.34-3.9Zm2.38-21.55c-.23-.11-.4-1.3-.51-3.56a4.82,4.82,0,0,0-1.53-2.89q.86,1.88.51,5.94c-.23,2.94-.17,4.64.17,5.09.11-.56.26-1.21.43-1.95A15.39,15.39,0,0,1,313.81,296.17Zm-1.7,9.67h.68v-2.38h-.68Zm1.36-27.31,1-1.87-.34-.17-1,1.87Zm.68,73.28.34-1.69H314l-.34,1.69Zm2.37-19.68c-.68.23-1.18,2.27-1.52,6.11,0,.23-.06,1.13-.17,2.72s-.29,3.9-.51,7c.22-2.14.53-4.52.93-7.12S316.07,335.3,316.52,332.13Zm.68-6.78.34-.17-1.36-2-.34.34Zm1.7,30.37a4.94,4.94,0,0,1-.17-1.53,20.24,20.24,0,0,0-.17-2.38c0-1.24-.4-1.86-1.19-1.86a1.81,1.81,0,0,0-.85,1.7A4.41,4.41,0,0,0,318.9,355.72ZM317.71,276h.51V274.8h-.51Zm.51,20h.51v-8.48h-.51Zm4.92,21.72a47.21,47.21,0,0,0-1.36,5.42,1.85,1.85,0,0,0,.6-.17,2,2,0,0,1,.59-.17,5.4,5.4,0,0,1,.68-2.71Zm2.54,45.63c-1.58-5.65-2.37-8.54-2.37-8.65a6,6,0,0,1,.59-1.27,4.32,4.32,0,0,0,.6-1.45c0,.57-.12.46-.34-.33s-.57-2.27-1-4.42v2c0,1.13.06,2.71.17,4.75a14.18,14.18,0,0,1-1.19,6.28A21.34,21.34,0,0,0,325.68,363.35ZM324,269.87l.34-6.27h-.51l-.34,6.27Zm.34,19.51h.51V272.93h-.51Zm3.56,14.93.34-2.71h-.51l-.34,2.71Zm1.53,61.75.17-4.07h-.51l-.17,4.07Zm6.27-111.79a16.63,16.63,0,0,1-5.09,3.56,3.43,3.43,0,0,0,3-.93A6.32,6.32,0,0,0,335.69,254.27Zm-3.22,34.44.51-7h-.51l-.51,7Zm2.37,57.85a3.46,3.46,0,0,0-.59-.51,2.57,2.57,0,0,1-.42-.34c-.46.45-.57,1.52-.34,3.22a27,27,0,0,1,0,4.24,1.5,1.5,0,0,1-.43.85,1.48,1.48,0,0,0-.42.85,1.87,1.87,0,0,0,1,1.52,16.14,16.14,0,0,0-1.53,3.57,2.77,2.77,0,0,0,.59,1.18,2.78,2.78,0,0,1,.6,1.19,13.19,13.19,0,0,1-.68,2.89,3.35,3.35,0,0,0,.51,2.88c.34-.34.62-1.75.85-4.24s.39-4,.84-4.41Zm6.62,24.26a4.8,4.8,0,0,0-.17-1,5.52,5.52,0,0,1-.17-.85c-.57.57-1,.85-1.36.85a4.53,4.53,0,0,0-.93-.34l-1.78-.51a10.11,10.11,0,0,0,1,1.87Zm-4.24-4.42h.51v-1h-.51Zm1.7-106.7h.68v-6.62h-.68Zm1.69,100.09c0-1.13,0-2.09-.08-2.89a15.88,15.88,0,0,0-.26-2,12,12,0,0,0-.84,2.71A2.35,2.35,0,0,0,340.61,359.79Zm.51,2.37a20.24,20.24,0,0,1-.85,2.38,25.94,25.94,0,0,0,.85,3.22c.11-.56.2-1.07.26-1.53a12.22,12.22,0,0,0,.08-1.35,11.49,11.49,0,0,0-.08-1.44C341.32,363,341.23,362.62,341.12,362.16Zm3.22-92.11a36.86,36.86,0,0,0-1.35-11.2q.17,2.2-1.36,7.8v7.13C343.44,273.67,344.34,272.42,344.34,270.05Zm-1.69-13.41h.51V254.1h-.51ZM346,361a2.09,2.09,0,0,1-1-.5c-.68,1.58-1,2.2-1,1.86a9.49,9.49,0,0,0,.59,1.61,8,8,0,0,1,.25,4,2.19,2.19,0,0,0-.16.93,7.89,7.89,0,0,1-.17,1.45,1.78,1.78,0,0,0,1.18,2.2Zm2.72-91.1a16.93,16.93,0,0,1-.26-2.37q-.09-1.53-.42-3.9a22.38,22.38,0,0,1-.17-6.11,4.25,4.25,0,0,0-1.7-.68v3.4a9,9,0,0,0,.51,2.46,8.88,8.88,0,0,1,.51,2.46,27.39,27.39,0,0,1,.17,4.74Zm.51-14.08a3.59,3.59,0,0,0-.68-1.35,3.38,3.38,0,0,1-.68-1.36,3.73,3.73,0,0,0-.43.51,4.75,4.75,0,0,1-.42.51,5.33,5.33,0,0,1,1.36,2.88C349,256.42,349.27,256,349.27,255.79Zm-1.36,100.1c-.57,0-.85.5-.85,1.52l.68,1.7c.11-.57.19-1,.25-1.27a3.31,3.31,0,0,0,.09-.6A2.8,2.8,0,0,0,347.91,355.89Zm1.52,13.4a18.34,18.34,0,0,1-.25-2,25.64,25.64,0,0,0-.42-2.88c-.57.57-.85,1-.85,1.36a4.07,4.07,0,0,0,.68,1.86Zm5.6,6.27a10.32,10.32,0,0,1-2.37-4.92c.11.34.17.23.17-.33s.05-1.64.17-3.23a4.74,4.74,0,0,0-1.7,1,55.57,55.57,0,0,1,1.53,6.62l-2.38.51Zm-2.54-112.13a4.38,4.38,0,0,0-1.36-3.22c.11,1.92.2,3.5.26,4.75s.08,2.26.08,3.05A13.53,13.53,0,0,0,352.49,263.43Zm4.07-7.3.34-6.1h-.51l-.34,6.1Zm4.75,108.58a1.51,1.51,0,0,0,0,2.71Zm6.62,5.26a2.76,2.76,0,0,1-2.21.17c-.34-.12-1-.29-1.87-.51a3.64,3.64,0,0,1-2.2,2.88h1.7a4.28,4.28,0,0,0,2.54-.76A4.4,4.4,0,0,0,367.93,370Zm-4.42-105a11.22,11.22,0,0,1-.33-1.53l-.51-.85a7.65,7.65,0,0,1-.17,1.36,6.81,6.81,0,0,0-.17,1.35A1.66,1.66,0,0,0,363.51,265Zm3.57,108.23c-.45,0-1.42.56-2.89,1.69h1.19c1.92-.56,2.94-1.13,3.05-1.69Zm-.68-112.14h.51v-1.52h-.51Zm1.19,4.24.34-2h-.51l-.34,2Zm.84,92.29.34-1.69h-.5l-.34,1.69Zm6.79-.85a79.42,79.42,0,0,1-2.54,8.15v6.44l2.54.34Zm-.51-99.92a17,17,0,0,0-.34-3.39,2.93,2.93,0,0,0-.42.68,2.87,2.87,0,0,1-.43.68Zm-.17,5.09.34-2.37h-.51L374,261.9Zm3.4-5.26.33-1.69h-.5l-.34,1.69Zm2.37,108.74a27.39,27.39,0,0,0-.51-4.24,27.38,27.38,0,0,1-.51-4.41q-.51,0-.51,10.35C379.8,366.4,380.31,365.84,380.31,365.38Zm-.51-93.47.34-7.46h-.68l-.17,7.46Zm0,78,.34-2.55h-.51l-.34,2.55Zm1.7,18.15-.6.51c-.28.23-.7.62-1.27,1.19-.23-.23.4-.34,1.87-.34Zm1.19-109.93h.5v-1.36h-.5ZM384,278.36l.34-1.7h-.51l-.34,1.7Zm1.36,58.53h.51l-.34-1.36h-.51Zm-.34,18a10.52,10.52,0,0,0,.85-3.4,12.15,12.15,0,0,0-.51-3.05l-.34-9Zm2.21-91.95a1.66,1.66,0,0,0-1.19-.34,2.12,2.12,0,0,1-.34.93,2.07,2.07,0,0,0-.34.94c0,.56.62,1.47,1.87,2.71Zm.17-2.88a1,1,0,0,1,.16-.68l.17-.34h-1.35Zm1,27.48.17-10.52h-.51l-.17,10.52Zm.17,71.08L389,355h-.51l-.34,3.56Zm.85-11.37.34-7h-.51l-.34,7Zm1.36,14.42a2.74,2.74,0,0,0-1.7.34v1.36C390.71,362.67,391.28,362.11,390.83,361.65Zm.85-12.55h.5v-3.22h-.5Zm2.88-60.39a1.87,1.87,0,0,0-.68-1.19h-1.7a1.48,1.48,0,0,0,.68,1.19Zm.34,68.7,1.87-.34v-.51l-1.87.34Zm1.36-16.28a50.94,50.94,0,0,0-1,5.76c0,2,.45,3.51,1.36,4.41Zm1.35-74.48c0-1.13-.39-1.69-1.18-1.69a1.16,1.16,0,0,0-.85.33,1.15,1.15,0,0,0,.17.51,1.59,1.59,0,0,1,.17.68v8.32A27.42,27.42,0,0,0,397.61,266.65Zm.17,13.57h.68l-.34-3.56h-.51Zm1.7,51.58c-1.13.45-1.64.84-1.53,1.18.57.34.85.68.85,1a5.47,5.47,0,0,1-.51,1.53,5.32,5.32,0,0,0-.51,2,9.28,9.28,0,0,1,.94-1.27,2.85,2.85,0,0,0,.76-1.27Zm.51,17.81h.51v-1.36H400Zm9.16-61.24a22.89,22.89,0,0,1-4.75-.85,7.29,7.29,0,0,1-.85-2.89c-.11-1.12-.34-1.75-.68-1.86-.11.57-.2,1.07-.25,1.53a11.62,11.62,0,0,0-.09,1.52,5.15,5.15,0,0,0,.34,2.46c.23.29,1,.43,2.38.43a16.66,16.66,0,0,0,1.95-.17A16.66,16.66,0,0,1,409.15,288.37Z" transform="translate(-49.93 -165.31)"/><path class="cls-1" d="M552.5,370.31q-1.37,1.69-5.6,1.86T542,375.39a17.44,17.44,0,0,1,.85,4.42,4.28,4.28,0,0,1-.68,2.88h-1.36v-9.84a4,4,0,0,0-1.69-.51H528.58a4.47,4.47,0,0,0-.43.51c-.17.23-.48.62-.93,1.19s-1.13,1-2.38,1a5.21,5.21,0,0,1-.33-2.55c-3.4.23-5.09,2.43-5.09,6.62-1-.12-1.53-1-1.53-2.55a19,19,0,0,1,.51-3.73c-.45-.11-1-.23-1.61-.34s-1.39-.28-2.29-.51a14.71,14.71,0,0,0,2.2-4.07,27.9,27.9,0,0,0,1.36-4.75,2.34,2.34,0,0,0-.59-1.1,2.31,2.31,0,0,1-.6-1.11q0-8.82.26-14.84c.17-4,.36-7.15.59-9.42.11-.56.4-1.61.85-3.13a15.81,15.81,0,0,0,.68-2.8,2.91,2.91,0,0,0-.77-1.27,3,3,0,0,1-.76-1.28,2.38,2.38,0,0,1,.59-1.1,2.29,2.29,0,0,0,.6-1.1,1.5,1.5,0,0,0-.43-.85,1.48,1.48,0,0,1-.42-.85v-12a40,40,0,0,0-1-7.3,37.58,37.58,0,0,1-1-7.29,17.15,17.15,0,0,1,.26-2.29,8.56,8.56,0,0,0,.08-2.63,23.69,23.69,0,0,0,1-5.77.5.5,0,0,0-.17-.34,2.57,2.57,0,0,1-.34-.42,3.89,3.89,0,0,0-.51-.6c-.68,1.25-1.52,4.07-2.54,8.48-.57,2.83-1.1,5.12-1.61,6.88s-.88,3.08-1.11,4a5.21,5.21,0,0,0,.34,1.19c0,.57-.73,2.26-2.2,5.09-.46.68-.85,2.6-1.19,5.77s-.82,6.9-1.44,11.19-1.39,9.22-2.29,14.76q-3.57,21.72-5.77,23.92v5.26c.11.12.56.17,1.36.17h2.37a1.87,1.87,0,0,1,.68,1.19q-4.06,1-5.6,3.39T494,381.84a21.81,21.81,0,0,0-1.36-4.32q-1-2.46-4.41-2.46a5.66,5.66,0,0,0-3.05.84L484,374.72c-.45-.46-1.41-.68-2.88-.68h-1.87c-.57.22-.85.84-.85,1.86a1.47,1.47,0,0,1-1,.51v-.93a6.94,6.94,0,0,0-.17-1.44,4.47,4.47,0,0,1-2.71,1c-.68,0-1.59-.74-2.71-2.21a3.24,3.24,0,0,0,1.18-2,6.23,6.23,0,0,0-.76-1.79,5.3,5.3,0,0,1-.76-2.29,2.1,2.1,0,0,1,.67-1.52c-1-.45-1.52-1.08-1.52-1.87a5.25,5.25,0,0,1,.17-1.1,6.11,6.11,0,0,0,.17-1.11,1.65,1.65,0,0,0-1.19-1.52,2.26,2.26,0,0,0,.51-1.36,5.21,5.21,0,0,0-.51-1.87c-.34-.79-.71-1.61-1.1-2.45s-.77-1.67-1.11-2.47a5.43,5.43,0,0,1-.5-2,4,4,0,0,1,.17-1.7,7,7,0,0,1-.94-1.86c-.28-.79-.54-1.61-.76-2.46s-.42-1.62-.59-2.29a3,3,0,0,0-.6-1.36,2.52,2.52,0,0,0,.68-1.87,7.06,7.06,0,0,0-.85-2.8,7.14,7.14,0,0,1-.85-2.63,10.48,10.48,0,0,0,.34-1.52,2,2,0,0,1-1-1.7,5.55,5.55,0,0,1,.18-1.1,6.16,6.16,0,0,0,.17-1.1c0-.79-.51-1.36-1.53-1.7a1.62,1.62,0,0,0,.68-1.36q0-7.64-1.7-9.84a7.7,7.7,0,0,0,.17-1.44v-1.27c0-1.58-.28-2.55-.85-2.89a1.79,1.79,0,0,0,.51-1.35,5.71,5.71,0,0,0-.59-1.61,18.54,18.54,0,0,1-.77-1.79q-.33-3.72-1.52-10.51a1.41,1.41,0,0,0-.85-.51,2.08,2.08,0,0,0-1,1.52l.68,31.9q.17,6.1-1.53,8.65v33.42a3.78,3.78,0,0,0,2.55,1.36,7.14,7.14,0,0,1,2,.59,7.32,7.32,0,0,0,2,.6h1.19c.45.45.67.79.67,1,0,.68-1,1-3,1H456a2.56,2.56,0,0,0-1.36.51,8.59,8.59,0,0,1,.51,3.05,18.62,18.62,0,0,1-.85,4.41q-2.2-.51-1.86-2.37c.11-2.49.22-3.68.34-3.57-3.29-1.69-4.75-2.54-4.41-2.54a4.1,4.1,0,0,0-1.11.26,5.44,5.44,0,0,1-.93.25c-.34,0-.54-.09-.6-.25s-.25-.26-.59-.26q1.53,0-6.28,1a8.45,8.45,0,0,0-.67.93,23.8,23.8,0,0,0-1.36,2.46,2.21,2.21,0,0,1-1.7-1.78,2.2,2.2,0,0,0-1.35-1.78c-.91.22-1.31.9-1.19,2a13.3,13.3,0,0,1-.17,3.22c-1.47-.12-2.21-.85-2.21-2.21a9.73,9.73,0,0,1,.17-2.54c-1.58-.12-3.17-.32-4.75-.6a29.08,29.08,0,0,1-4.75-1.27,65.64,65.64,0,0,0,9.5-2c.11-.91.23-1.95.34-3.14s.28-2.57.51-4.16v-1.44c0-.73-.06-1.72-.17-3q-.16-3.22,1.53-4.75-.85-.68-1.53-5.6a29.51,29.51,0,0,0,.17-3.47v-4.84a2.2,2.2,0,0,1,.17-1.87q.17-1.19,0-1.35a32.41,32.41,0,0,1-.51-3.91v-3.22a7.65,7.65,0,0,1,.17-1.36,24.35,24.35,0,0,1-.51-6.1c.11-1.47.17-2.26.17-2.38q-.35-.51-.51-8.14l-.68-12.38a23.25,23.25,0,0,1-1.35-4.42,24.48,24.48,0,0,1,.17-2.63q.17-1.6.42-3.39c.17-1.18.34-2.32.51-3.39a17.49,17.49,0,0,0,.25-2.63,10.22,10.22,0,0,0-.59-2.89,10.1,10.1,0,0,1-.59-2.88,11.13,11.13,0,0,1,.59-2.63,11.76,11.76,0,0,0,.59-2.46v-2q-1.19-2.72-1-10.35-.18-1.18-4.24-2a59,59,0,0,1-6.45-1.19,2.52,2.52,0,0,1,2.54-1.69c-.34,0,.09.08,1.28.25s3.19.49,6,.94a4,4,0,0,0,1.19-2.89,9.63,9.63,0,0,0-.34-2,9.16,9.16,0,0,1-.34-2l.34-1.36a3,3,0,0,1,1.52,2.89,9.3,9.3,0,0,1-.17,1.52,10.7,10.7,0,0,0-.17,1.53c0,1,.45,1.53,1.36,1.53a2.88,2.88,0,0,0,.85-.17,2.88,2.88,0,0,1,.85-.17,12.77,12.77,0,0,1,2.71.59,13.31,13.31,0,0,0,2.55.6q1,0,2.37-2c.57.45,1.1.85,1.61,1.19a5,5,0,0,1,1.28,1.19h1.69c.11-.46.2-.85.26-1.19s.14-.74.25-1.19.9-.68,2.38-.68a2.42,2.42,0,0,1,1.52.42,4.67,4.67,0,0,1,.85.94,4.37,4.37,0,0,0,.85.93,2.37,2.37,0,0,0,1.53.43q7.29,0,6.27-6.28c.23.23.68.74,1.36,1.53s1.64,1.92,2.88,3.39q1.19,1.69,5.09,1.7H477v1.69a4.79,4.79,0,0,1-2.55,0,2,2,0,0,0-.85-.17,4.53,4.53,0,0,1-1.18-.17,3.37,3.37,0,0,0-1.11.34,3.21,3.21,0,0,1-1.27.34,5.63,5.63,0,0,1-1.27-.17,6.36,6.36,0,0,0-1.28-.17,4.26,4.26,0,0,0-2.88,1c1.47,2.94,2.69,5.66,3.65,8.14a53,53,0,0,1,2.12,6.62c.22,1.24.45,2.49.68,3.73s.45,2.49.68,3.73q1.35,4.92,4.07,5.43c.11.12,0,.68-.34,1.7a7.67,7.67,0,0,0,1.1,2.12,6.73,6.73,0,0,1,1.1,2.29,2.76,2.76,0,0,1-1.18,2v3.06a9.26,9.26,0,0,1,1.35,4.58,6.33,6.33,0,0,1-.51,2.54,1.38,1.38,0,0,0,.85.51,1.35,1.35,0,0,0,1-.68,1.66,1.66,0,0,1,.85,1.53,4.38,4.38,0,0,1,0,1.7,2.52,2.52,0,0,1-.09.67,3.23,3.23,0,0,0-.08.68c0,.23-.06.34-.17.34a6.62,6.62,0,0,0,1.36,2.38,1.64,1.64,0,0,0-.51,1.19c.45,1.24.82,2.23,1.1,3s.54,1.5.76,2.29a7,7,0,0,1,.34,1.69c0,.57,0,.91-.17,1q2.72,5.59,2.72,8a4.75,4.75,0,0,0-.34,1.19c.11.11.17.2.17.25s.05.15.17.26a14.29,14.29,0,0,0,1,1.53q1,1.35,1.86,1.35,4.24-9.33,3.73-14.59c-.22-.11.12-1,1-2.54a8.31,8.31,0,0,0,1.19-3,9.65,9.65,0,0,1-.34-1.53q.68-2.88,1.7-7t2.37-9.5q0-.84,1.1-6.53t3.31-16.54q.86-4.57,2.21-10.43T507.71,248c1,.23,1.41,1,1.19,2.38-.23,1.58-.4,2.62-.51,3.13s-.17.49-.17-.08q0,1.88,9,1.87l1.87-1.87a1.62,1.62,0,0,0,1.52,1c-.33,0,.74-.4,3.23-1.19a2,2,0,0,0,1.35,2.38,17.33,17.33,0,0,1,2.72-3.06c.68.68.9,1.3.68,1.87a8.9,8.9,0,0,0,5.09,1.19q4.58,0,6.44-2.89c-.56-2-.84-2.6-.84-1.69a4.39,4.39,0,0,1,1.35-3.23,23.92,23.92,0,0,1,.51,2.55,16.72,16.72,0,0,0,.51,2.37q1.18,3.22,6.79,3.56-4.75,1-6.79,3.06v18.83a1.65,1.65,0,0,1,1,1.36,16.36,16.36,0,0,1,.34,3.73c0,1.58-.06,3.5-.17,5.76-.12,3.4-.23,5-.34,4.92,1,4.3,1.52,6.57,1.52,6.79a94.27,94.27,0,0,1-1.52,13.06l.34,39.87a3.57,3.57,0,0,1-.43.93,2.83,2.83,0,0,0-.42,1.28,7.52,7.52,0,0,0,.59,2,7.32,7.32,0,0,1,.6,2c0,5.65-.46,8.59-1.36,8.82a2.07,2.07,0,0,0,1.87,1.19,15.61,15.61,0,0,0,2.37-.26,15.33,15.33,0,0,1,2.38-.25A13.62,13.62,0,0,1,552.5,370.31ZM433.58,260.37c.11-.33-.15-.87-.77-1.61s-1.1-1.1-1.44-1.1a11.93,11.93,0,0,1,1.36,4.92l.85,10.35Zm-.17,50.73a7.14,7.14,0,0,0-1.53.85v4.24q1,1,1.53,1Zm5.09-48.69.33-.34-1-1-.34.34Zm.17,23.41h.5v-1.36h-.5ZM441.38,344l.34-7.3h-.51l-.34,7.3Zm1.87-78q-1.37,1.88-1.36,6.62a20.9,20.9,0,0,0,.85,5.6v-9.84a4.87,4.87,0,0,1,.25-1.19A4.94,4.94,0,0,0,443.25,266Zm1.69,21.72a32.12,32.12,0,0,1-1.18,9c.67.68.95,1.24.84,1.7-.11.11-.34.31-.68.59s-.79.71-1.35,1.27c.34.45.7.94,1.1,1.44a17.49,17.49,0,0,1,1.27,1.95Zm-1.69,22.9.33-2.55h-.5l-.34,2.55Zm-.34-52.25,1.69-.34v-.51l-1.69.34Zm4.24,5.43h.51v-5.26h-.51Zm.68,86.18h.51V295.49h-.51Zm3.56,7.46h1.19v-.51h-1.19Zm3.39-91.61v-5.25a17.18,17.18,0,0,0-.17-2.89q-1.53.85-1.53,1a3.92,3.92,0,0,1,.85,1.53,11.93,11.93,0,0,1,.51,2.12c.11.73.2,1.41.26,2S454.78,265.46,454.78,265.8Zm-.85,20.7-.85,2.21a7.08,7.08,0,0,0,.26,1.52,6.9,6.9,0,0,1,.25,1.53,3.56,3.56,0,0,0,.68-2.54c-.11-1.25-.2-2.07-.25-2.47S453.93,286.28,453.93,286.5Zm4.41-4.41h.51l-.34-1.7H458Zm.85-22.73.34-1.7H459l-.34,1.7Zm.85,38h.51l-.17-2.89h-.51Zm4.24-35.29a18.78,18.78,0,0,0-2.88-4.41c1.13,2.27,1.69,3.79,1.69,4.58v1.19C463.88,263,464.28,262.52,464.28,262.07Zm-1.52,38.34a36.21,36.21,0,0,1-1.36,3.39v2.38C462.3,306,462.76,304,462.76,300.41Zm.33-30q-.84.86-.84,1c0,.23.28.62.84,1.19Zm1.53,38.68a3,3,0,0,0-2-1v2.55a7.11,7.11,0,0,0,.51,1.27,4.48,4.48,0,0,1,.51,1.62,1.09,1.09,0,0,1-1,1.18h2a11.86,11.86,0,0,1-.68-4.07C463.94,309.69,464.17,309.18,464.62,309.06Zm1.53,17.31c-.46-.45-.85-1.81-1.19-4.07a2,2,0,0,0-.85,1.86q0,1.36,2,4.58Zm2.54-50.9a3.94,3.94,0,0,0-1.69-2.54c.11.57.19,1.08.25,1.53a8.46,8.46,0,0,1,.09,1,5,5,0,0,1-.09.85c-.06.34-.14.79-.25,1.36h1.35Zm1.53,9.84h.51v-1.69h-.51Zm3.22,26.13a9.17,9.17,0,0,0-.68-4.24,40.94,40.94,0,0,1-.25,4.15,56.84,56.84,0,0,1-.93,5.69,71.4,71.4,0,0,0-1,9.84v4.41c.68.11,1.24-.4,1.69-1.53a14.65,14.65,0,0,1-.33-2.37c0-.91.05-2,.16-3.23s.29-2.77.51-4.58.43-3.39.6-4.75A28,28,0,0,0,473.44,311.44Zm.85,49.2a56.82,56.82,0,0,1-1.53-12.39c0-.9,0-1.75.09-2.54s.14-1.59.25-2.38c-1.13-1.81-1.69-3.05-1.69-3.73-.46,0-.74,1.36-.85,4.07a7.8,7.8,0,0,1,1.52,5.09c0,.68-.05,1.73-.16,3.14s-.17,2.46-.17,3.14C471.75,357.64,472.59,359.51,474.29,360.64Zm-1.53-66.84h.51l-.34-2.89h-.5Zm1.36,4.74.34-1.35H474l-.34,1.35Zm.51,67.86v1.7h.51v-1.7Zm1.87-20.69.34-5.09h-.51l-.34,5.09Zm2.88,5.09c-.91.56-1.36,1.75-1.36,3.56v1.1a5.36,5.36,0,0,0,.17,1.27c-.34,0-.06-.11.85-.34.11-1.24.2-2.2.26-2.88s.08-1.13.08-1.36Zm-1-2.72h.51v-1.36h-.51Zm2.72,22.74a5.55,5.55,0,0,1-.17-2v-1.1a7.1,7.1,0,0,1,.17-1.45l-.68.17-1.53-.51a12.83,12.83,0,0,1,.85,4.93Zm1.86-43.77q0-4.24-2.54-5.77a19.94,19.94,0,0,1,.17,2.37v1.87c0,2.37-.23,3.79-.68,4.24Zm1.7,5.59c0-.34-.45-.79-1.36-1.35q-1.86,5.25-1.86,6.44a17.3,17.3,0,0,0,1,5.43l.51-3.22a2.77,2.77,0,0,1-.68-2,5.9,5.9,0,0,1,1.19-3.39,4.46,4.46,0,0,0,.6-.76C484.22,333.47,484.41,333.1,484.64,332.64Zm-.51,18.16.34-2.55H484l-.34,2.55Zm1-11.2c-.46,2.26-.79,3.85-1,4.75s-.34,1.13-.34.68a1.8,1.8,0,0,0,.34,1,1.71,1.71,0,0,1,.34.67,6.15,6.15,0,0,1,.51-1.1,12.4,12.4,0,0,0,.68-1.44Zm2.2,27.65a3.91,3.91,0,0,0-.17-1.69v-.85c-.22,1.24-.45,2.35-.67,3.31s-.46,1.78-.68,2.45h1.52Zm1.19-18.83a1.39,1.39,0,0,0-.17-.85l-.17-.51c-1.13.8-1.69,2.21-1.69,4.24,0-.33.11.06.33,1.19A25.05,25.05,0,0,1,488.54,348.42ZM487,356.9h.34l-.17-1.35h-.51Zm2.38,2.72a14.1,14.1,0,0,0-.34-2.38c-.11.34-.23.74-.34,1.19a11.38,11.38,0,0,1-.51,1.53,2.16,2.16,0,0,0,.6-.17A2,2,0,0,1,489.39,359.62Zm1.36-20.87.34-2h-.51l-.34,2Zm-.51,32.91h.51l.17-6.1h-.51Zm4.41,0,.34.17,1.52-2.54-.34-.17Zm2.54-14.42.51-2.2h-.34l-.68,2.2Zm3.56-61.92a3.17,3.17,0,0,0-.59.93c-.17.4-.37.88-.59,1.45.9-.23,1.41-.62,1.53-1.19a1.28,1.28,0,0,1-.17-.59A1.34,1.34,0,0,0,500.75,295.32Zm.18,45.13a3.28,3.28,0,0,0,1.35-3.23l-1.35,1.36ZM505.17,323l.34-1.52H505l-.34,1.52Zm1.52-60.05c-.45.45-1.07,3.51-1.86,9.16a14.07,14.07,0,0,0,1.18-3.56c.57-2.72.79-4.13.68-4.24Zm2.72-.68h.51l-.68-4.24h-.51Zm1.52-3.22q1.53-.16,1.53-1l-1.53-.34Zm5.6-.51a2.28,2.28,0,0,1,.34,2.2c-.11.8-.2,1.45-.25,2a4,4,0,0,0,.08,1.44,5.93,5.93,0,0,0,1.36-3.4v-2.2Zm3.23,24.09a6.52,6.52,0,0,1-.34-3.73,3.68,3.68,0,0,0-1.36,2.2v1.53a1.78,1.78,0,0,0,1,.17A1,1,0,0,0,519.76,282.6Zm4.41,82.45c-.57.56-.85,1-.85,1.35,0-.22.28.4.85,1.87Zm-.68-60.23H524v-2.88h-.51Zm2-28.16q-.67-1.19-.68-5.43c0-.45.06-1.18.17-2.2s.29-2.38.51-4.07l.51-6.28c0-.68-.4-1-1.19-1a7.49,7.49,0,0,1-.33,1.87,7.42,7.42,0,0,0-.34,1.52v7.64a1.83,1.83,0,0,1-.17,1v8.65a5.83,5.83,0,0,0,.25,1.44,6,6,0,0,1,.26,1.44A3.3,3.3,0,0,0,526,278.7Zm-.84,15.1.16-4.58h-.5l-.17,4.58Zm0,7.63h.5l-.34-5.76h-.5Zm2,57.85h.51v-1.69h-.51Zm0,10.18v1.7h.51v-1.7Zm1-5.77h.51L527.9,360h-.51Zm.68-32.06.34-2.88h-.51l-.34,2.88Zm2.37,39.53h.51v-6.79h-.51Zm1.36-100.6a3.42,3.42,0,0,0-1.19,2.37,4.37,4.37,0,0,0,1.19,3.23Zm1.7-10.86a15.36,15.36,0,0,1-2,4.24q.68,1.37,1.53,1l.51-1.53c.11-.56.19-1,.25-1.27s.09-.37.09-.25Zm.34,16.46-1.7.34a5.62,5.62,0,0,1,.42.5,9.63,9.63,0,0,0,.94,1C534.06,274.85,534.18,274.23,534.18,274.12Zm-.85,78.37h.51V337.9h-.51Zm2,8.65h.51l-.68-5.25h-.51Zm-.68,4.42h.51v-2.38h-.51Zm2.55-74.82c-.11-.22-.23-.48-.34-.76s-.28-.65-.51-1.1a12.67,12.67,0,0,1-.68,3.39,5.55,5.55,0,0,0,0,3.39Zm2.54-31.89a5.93,5.93,0,0,0-2.54-1.19c.79,1.59,1.64,2.43,2.54,2.55Zm-.34,105.86v4.58h.51v-4.58Zm.34-74.14h.51v-6.11h-.51Z" transform="translate(-49.93 -165.31)"/><path class="cls-1" d="M669.89,256a2.83,2.83,0,0,1-1.61.68,13.71,13.71,0,0,1-2.21.17H664a3.52,3.52,0,0,0-1.35.17c-1.25.34-2.44,1.93-3.57,4.75-.57,1.36-1,2.58-1.44,3.65a13.68,13.68,0,0,0-.76,2.8q-4.94,5.6-6.28,8.65A127.13,127.13,0,0,1,640.37,296q-1.7,5.78-9.67,18.49-3.39,5.43-5.51,9.42a15,15,0,0,0-2.12,6.7v17.81c0,.23,0,.74.08,1.53a16.93,16.93,0,0,0,.6,3.05,21.08,21.08,0,0,1,.59,3.31c.06.85.08,1.53.08,2a11.07,11.07,0,0,1-.08,1.44,6,6,0,0,0,.08,1.69l.17,3.06a13.58,13.58,0,0,0-.51,2.37c-.11.91-.22,2-.33,3.23a3.26,3.26,0,0,0,2.88,1.52,5.83,5.83,0,0,0,1.44-.25q.93-.26,2-.51l2.2-.51a8,8,0,0,1,1.62-.25l.33,2a6.11,6.11,0,0,0-1.27.26c-.62.17-1.3.33-2,.51s-1.42.33-2,.5a6,6,0,0,1-1.44.26,3.69,3.69,0,0,1-.93-.17,3.4,3.4,0,0,0-.94-.17c-1.24,0-1.75.62-1.53,1.87a9.52,9.52,0,0,1-.16,3c-.91-.68-1.36-1.93-1.36-3.73-.12-.12-.45-.17-1-.17q-2,0-2,1.35a10.94,10.94,0,0,0-.16,1.7,2.44,2.44,0,0,1-.17,1,12.36,12.36,0,0,0-1.36-1.95,10.29,10.29,0,0,0-1.61-1.44,3.48,3.48,0,0,0-2.12-.68c-2,0-3,1.18-2.72,3.56h-.68a1,1,0,0,1-.68.17l-.67-1.19c.11-1.13-.34-1.75-1.36-1.86-1.81,0-2.66.73-2.55,2.2a2,2,0,0,1-1.35.68,6,6,0,0,1-1.19-2.71c-1.25.56-1.87,1.29-1.87,2.2a6,6,0,0,0,.34,1.61,6.19,6.19,0,0,1,.34,1.61A3.44,3.44,0,0,1,600.5,383a3,3,0,0,1-2-2.89v-2.37a15.88,15.88,0,0,1,.17-2.38q-2-2-7-2a3.06,3.06,0,0,0-3,1.87,12.15,12.15,0,0,1-1.36-1.53q8.15-2,7.47-2a4.68,4.68,0,0,0,1.18.34c.57.12,1.3.29,2.21.51.22-.22.31-.37.25-.42s-.08-.26-.08-.6a9.77,9.77,0,0,0-.42-1.78,8.35,8.35,0,0,1-.43-1.95l1.87-8.82a14.77,14.77,0,0,1-.68-3.05,4.81,4.81,0,0,1-.09-2.38q.26-1.18.6-2.37l.17-13.58q0-2.37-.09-4.83a10.52,10.52,0,0,0-1.44-4.84c-2-3.5-3.22-6.27-3.56-8.31q.51-1.53-2.72-7.29Q589,307,583.37,296.51q-3.23-5.76-4.75-5.43a10.83,10.83,0,0,0-1-3.73l-.68-1.36a1.34,1.34,0,0,0,.26-.34,2.21,2.21,0,0,1,.42-.51q-2.37-5.43-5.68-13.14t-7.55-17.56h-1.78a9.27,9.27,0,0,1-1.78-.17c-.12-.11-.29-.26-.51-.43a6,6,0,0,1-.68-.59c.68,0,1.36,0,2-.08s1.36-.15,2-.26a11.27,11.27,0,0,1-1-3.22,17.45,17.45,0,0,1,2.38,3.9c1.24,2.26,2.15,3.39,2.71,3.39a5.17,5.17,0,0,0-.34-1.52,5.64,5.64,0,0,1-.34-1.53c0-1.24.4-1.87,1.19-1.87.34,0,.51.06.51.17s.17.17.51.17a3.66,3.66,0,0,0,2.54-1.53,2.28,2.28,0,0,0,1,.77,12.8,12.8,0,0,0,1.95.76c.74.23,1.44.43,2.12.59a6.48,6.48,0,0,0,1.53.26,22.69,22.69,0,0,0,2.8-.26,26.82,26.82,0,0,1,2.8-.25,2.35,2.35,0,0,1,1.53.85c.45-.11.67-.51.67-1.19,0-.22-.28-.65-.84-1.27s-.85-1-.85-1.27v-2.55q5.43,5.94,8.48,5.94a4.35,4.35,0,0,0,3.22-1.19,2.35,2.35,0,0,1,.85,1.53A31,31,0,0,0,590.5,255a.48.48,0,0,0,.17.34,3.82,3.82,0,0,1,.67,1,1.19,1.19,0,0,1,.85-.34q.34,0,4.24,8,2.39,4.92,4.67,9.16t4.49,7.8a6.38,6.38,0,0,1,1.87-3.22c-.23,1.92-.42,3.51-.59,4.75a23.16,23.16,0,0,0-.26,2.54q0,.51,3.06,5.6c2.14,3.17,3.22,5.49,3.22,7a2.32,2.32,0,0,1-.17,1.19l1,1a73.22,73.22,0,0,0,4.32-8.06q2.46-5.16,5.69-12.8l10.18-24.43c0-.11-.06-.17-.18-.17a.68.68,0,0,1-.33-.09,1.36,1.36,0,0,0-.51-.08H630q.51-1.53,5.43-2c.57-.22,1.16-1,1.78-2.29a10.83,10.83,0,0,1,1.44-2.46.91.91,0,0,1,.68,1,32.47,32.47,0,0,1-1.52,4.07c1.35.23,2.8.43,4.32.59a43.15,43.15,0,0,0,5,.26c.79,0,2-.08,3.73-.26s2.94-.25,3.73-.25c1.81.79,3.17,1.36,4.07,1.7s1.47.56,1.7.68q-.67,0,4.24-3.91a3.73,3.73,0,0,1-.34,1.19,3.8,3.8,0,0,0-.34,1.19c0,1,.85,1.58,2.55,1.7A19.12,19.12,0,0,1,669.89,256Zm-99.75,2,.34-1.7H570l-.34,1.7Zm10.68,3.39a2.78,2.78,0,0,1-1.18-2c0-.11.39-1.7,1.18-4.75q-2.37,1.35-2.37,5.94a1.15,1.15,0,0,0,.43.76c.27.28.42.48.42.59a28.47,28.47,0,0,0-.17,3.31V269c.22,1.92.42,3.28.59,4.07s.26,1.07.26.85a11.3,11.3,0,0,1-.68,4.41l1.52-1.53Zm4.25,6.62c0-.68,0-1.58-.09-2.72s-.14-2.31-.25-3.56-.2-2.43-.26-3.56-.08-2-.08-2.71a.15.15,0,0,0-.17-.17.69.69,0,0,1-.34-.09,1.18,1.18,0,0,0-.51-.08c0,.67-.06,1.75-.17,3.22s-.17,2.54-.17,3.22a8.33,8.33,0,0,0,.59,2.12,8.18,8.18,0,0,1,.6,2.12v11a6,6,0,0,0-.68,3.05v1.45a13.26,13.26,0,0,0,.17,1.95,14.12,14.12,0,0,0,1.36-3.06Zm-1,21.21.34-3.57h-.51l-.34,3.57Zm7.12,17a3.38,3.38,0,0,0-.76-2,3.34,3.34,0,0,1-.76-1.35,6.56,6.56,0,0,1,.51-2,2.81,2.81,0,0,0-2-.68,42,42,0,0,0,2.55,7.13A1.49,1.49,0,0,0,591.17,306.18Zm1.36-25.11c0-1.24-.11-3-.34-5.17s-.57-4.84-1-7.89q-1.51-10.35-2.71-10.52v2.88a8.4,8.4,0,0,1,1.19,2.89L591.51,286Q592.53,285.48,592.53,281.07Zm6.11-7.63a3.69,3.69,0,0,1-1-1.19c-.34-.56-.65-1.13-.93-1.7s-.54-1.1-.77-1.61a3.32,3.32,0,0,0-.51-.93,14.62,14.62,0,0,1-.67,4.24,2,2,0,0,1,1.18,1.7,3.76,3.76,0,0,1-.34,1.18,4.07,4.07,0,0,0-.33,1.19,1.52,1.52,0,0,0,1,1.36,6.46,6.46,0,0,0-1.52,3.73v8.31a1.54,1.54,0,0,1,.59,1.19c0,.57.11,1.19.17,1.87s.11,1.3.17,1.86a3.08,3.08,0,0,0,.42,1.36c0-1.13-.06-2.88-.17-5.26s-.17-4.13-.17-5.26A25.17,25.17,0,0,1,598.64,273.44Zm-2,43.94h.51v-7.64h-.51Zm3.9-9.84.34-4.24h-.51l-.33,4.24Zm.85,2.37a4.62,4.62,0,0,0-1.18-.85v9q.68-4.4.93-6.44A8.32,8.32,0,0,1,601.35,309.91Zm1.36-27.14q-1-1-1-1.53c0,.23-.34.34-1,.34a6.1,6.1,0,0,1,.26,1.1,6,6,0,0,0,.42,1.45Zm1.36,69.89a51.31,51.31,0,0,1-2.12,9.16,18.11,18.11,0,0,0-1.28,4.92,1.1,1.1,0,0,0,.6,1c.39.23.59.45.59.68a5.31,5.31,0,0,1-1.19,2.71c0,.34.4.68,1.19,1q0-.84.09-2.37c0-1,.14-2.27.25-3.74l1.87-5.93Zm-2.55-17.3.34-2.72h-.51l-.34,2.72Zm1.53-43.43a3.52,3.52,0,0,0,1.53-1.36v-4.92h-1.53ZM605.42,344h.51l1-16.12h-.51Zm1.7,25.28c-1.13.45-1.7,1-1.7,1.53q0,1.35,1.53,1.35Zm-.68-19.85H607v-2.38h-.51Zm4.41-35.29-2-1.95a5.87,5.87,0,0,0-1.44-1.1c.9,2.94,1.36,4,1.36,3.22a2.82,2.82,0,0,1-.34,1.19,2.88,2.88,0,0,0-.34.85,3.71,3.71,0,0,0,2.71.34Zm-1.18-18.49c0,.12-.12-.17-.34-.85a2.72,2.72,0,0,1-.6-1,9.38,9.38,0,0,0-.76-1.53,15.7,15.7,0,0,0-.26,2c-.05.74-.08,1.5-.08,2.29v1.78a11.18,11.18,0,0,0,.17,1.95C609,295.83,609.67,294.3,609.67,295.66Zm1,42.58a18.77,18.77,0,0,0-.51-3.56,21.87,21.87,0,0,0-.67-3.73,9.76,9.76,0,0,1,.5-2.8,17,17,0,0,0,.68-3.82c.11-1.47.17-2.48.17-3.05v-.51A2.57,2.57,0,0,0,609,322l-1,10.85q0-3.39.51,3.4c.34,4.64.51,8.08.51,10.35a29.35,29.35,0,0,0,.25,3.81,18.53,18.53,0,0,0,1.1,4.16Zm.51-30.2c0-.9-.06-1.35-.17-1.35a1.4,1.4,0,0,0-.51.17,1.35,1.35,0,0,1-.51.17C610,307.82,610.4,308.16,611.19,308Zm0-3.22h.51l-.17-2.71H611Zm3.06,49.88v-3.48a2.53,2.53,0,0,0-.34-1.61l1-27.14a4.69,4.69,0,0,0-.51,2.62,3.86,3.86,0,0,1-.84,2.8l-1.36,28a3.71,3.71,0,0,1,.68,2.12,2.34,2.34,0,0,0,1.36,2.12Zm1.35,16.12c-1.13.11-2-.68-2.54-2.38.11.57.19,1.16.25,1.78s.14,1.27.26,1.95h1.69Zm1.53-68.54a2,2,0,0,0-1.36-.34c.11,1.47.17,2.66.17,3.56v2.21a1.64,1.64,0,0,0,1.19-.34ZM618,335a19.79,19.79,0,0,1,.34-3,21.4,21.4,0,0,0,.34-3.06v-9.67c0-.79-.51-1.19-1.53-1.19.11,1.25.2,2.61.25,4.08s.2,3.16.43,5.08l-1.19,13.58c.11-.45.37-1.42.76-2.89A14.56,14.56,0,0,0,618,335Zm3-24.94q0-4.06-1.53-16.28a14.69,14.69,0,0,0-1.52,5.76,19.12,19.12,0,0,0,.25,2.72c.17,1.13.37,2.49.6,4.07a35.42,35.42,0,0,1,1,6.78,2,2,0,0,0,.6-.16,1.75,1.75,0,0,1,.59-.17Zm-.34,56.49a3.25,3.25,0,0,0-1-2.37,12,12,0,0,1-.84,2.71l-.85,1.7a8.89,8.89,0,0,0,.76,1.27,5,5,0,0,0,1.1,1.1,5.05,5.05,0,0,0-.34-1l-.33-.68a.94.94,0,0,1-.18-.68C620.12,367.82,620.69,367.14,620.69,366.57Zm.17-14.76h.51v-2h-.51Zm3.9-69.21a10.7,10.7,0,0,1-.17,1.53,10.45,10.45,0,0,0-.17,1.52,24.74,24.74,0,0,0,.17,2.55c.11,1,.28,2.2.51,3.56.23,1.58.4,2.86.51,3.82s.23,1.72.34,2.29a7.56,7.56,0,0,1,.25-1.53,7.05,7.05,0,0,0,.26-1.53ZM630.53,303c-1.36,2.71-2,4.3-1.86,4.75v2.88c.22-.9.5-2,.84-3.22S630.19,304.65,630.53,303Zm.68-31.22c-.11.23-.17-1.24-.17-4.41-.91,3.39-1.36,4.47-1.36,3.22a1.35,1.35,0,0,0,.17.85l.17.68Zm9.84,18.66c-1.47,1.47-2.38,2.21-2.71,2.21a2.24,2.24,0,0,1-1.36-.51c.45,1.58-.12,4.3-1.7,8.14Q637.83,299.22,641.05,290.4ZM644.44,256a9.94,9.94,0,0,0-3.39-.5,12.3,12.3,0,0,0-3.9.67,6,6,0,0,0,2.54,1.36,2.07,2.07,0,0,0,1.87-1.19,3,3,0,0,1,1.52,2.55,6.2,6.2,0,0,1-.08.93c-.06.4-.14.88-.25,1.44a4.75,4.75,0,0,0,0,2.55c.33-.11.62-.85.84-2.21.12-1.13.23-2.14.34-3.05A17.7,17.7,0,0,1,644.44,256Zm-3.73,5.6c-.68-.79-1-1.3-1-1.52a1.78,1.78,0,0,1-1,.17v15.43a4.33,4.33,0,0,0,2,4.08Zm2.54,10.52.68-2.54h-.5l-.51,2.54Zm8.66-2.37a1.35,1.35,0,0,0-.17-.85l-.34-.51q-.85,2.88-8.15,16.28a1,1,0,0,0,.18.6.82.82,0,0,1,.16.42q.51-.67,1.62-2.46t2.8-5C650.6,273.55,651.91,270.72,651.91,269.71ZM649.36,256c-.9,0-1.47.57-1.69,1.7a16.05,16.05,0,0,0-.34,2,2.18,2.18,0,0,0,1.52,2,1.78,1.78,0,0,1-.17-1,6.45,6.45,0,0,1,.51-2,6.56,6.56,0,0,0,.51-1.87A1.15,1.15,0,0,0,649.36,256Zm2,12q1-1,1.35-1l-1.35-1.36Zm1.86-11.54a2.52,2.52,0,0,0-1.69,1.19v1.7A4.09,4.09,0,0,0,653.26,256.47Zm5.6,1.7.34-.34-1-.68-.34.34Z" transform="translate(-49.93 -165.31)"/><path class="cls-1" d="M789.32,251.72a25.64,25.64,0,0,0-.51,4.41,15.4,15.4,0,0,0-3.73.51q-13.58,12.74-36.65,33.08a7.85,7.85,0,0,1-1,3.23,49.47,49.47,0,0,0-6.27,4.07,5.33,5.33,0,0,1-.34,1.78c-.23.62-.51,1.39-.85,2.29a1.62,1.62,0,0,0-1.36-.68,1.82,1.82,0,0,0-1.35.51q-.35.34,0,1.53c0,.68-.29,1-.85,1a1.52,1.52,0,0,1-.94-.33,1.26,1.26,0,0,0-.59-.34c-.34.9-.4,1.47-.17,1.69.57.34.85,1.36.85,3.06.23.45.76,1.67,1.61,3.64A24.17,24.17,0,0,0,740.8,317c.9,1.24,2,2.85,3.22,4.83s2.66,4.33,4.24,7q2.72,4.41,4.5,7.47a45.48,45.48,0,0,0,3,4.58,13.83,13.83,0,0,0,2,2.29c.91.84,2,1.84,3.23,3a28.06,28.06,0,0,1,4.92,5.09l2,2.8a12.25,12.25,0,0,0,1.1,1.45,11.39,11.39,0,0,0,3.9,3.22c-.23,1.25,1,3.73,3.56,7.46,2.38,3.62,4.41,5.43,6.11,5.43a5.81,5.81,0,0,1,2,.17c0,.91-.23,1.36-.68,1.36-.23,0-.51-.23-.85-.68l-.85.85a26.91,26.91,0,0,1,2.38,3.82,10.89,10.89,0,0,0,.84,1.61v1.69a23.4,23.4,0,0,1-7.46-5.25c-1.47-1.48-3.68-2.21-6.62-2.21a4.67,4.67,0,0,0-3.39,1,4.06,4.06,0,0,1,.51.84c.23.35.11.74-.34,1.19-1.7,0-2.32-.9-1.86-2.71.22-.23,0-.34-.51-.34a2.14,2.14,0,0,0-1.45.25,3.73,3.73,0,0,1-1.44.43,19.63,19.63,0,0,1-3-.34,18.4,18.4,0,0,0-3-.34c-1-.11-1.52.17-1.52.85l.68,1.52a2.24,2.24,0,0,1,.17,1.87,6,6,0,0,1-2.21-1.19c-.23,0-.59.28-1.1.85s-.88.85-1.1.85c-.8,0-1.36-1-1.7-2.89a3,3,0,0,0-2.54-1.52l-3.06-.17a3.56,3.56,0,0,1-2.2-1.7.15.15,0,0,1,.17-.17,1.77,1.77,0,0,1,1.52-.68,2.64,2.64,0,0,1,.85.18,2.82,2.82,0,0,0,.85.16c.79.12,1.19-.16,1.19-.84,0-.34-1-2.15-2.89-5.43q-2.88-5.43-2.88-6.11c-1.36-1.92-3.06-4.16-5.09-6.7s-4.53-5.4-7.47-8.57a1.61,1.61,0,0,1-1.52-1.86,10.88,10.88,0,0,0,.08-2.29,7.33,7.33,0,0,0-.25-1.45q-1.36-2.53-2.29-4.58a34.07,34.07,0,0,0-1.78-3.39,27.93,27.93,0,0,0-2.29-2.37,37.12,37.12,0,0,0-4.33-3.4l-1.87,1.87a2.42,2.42,0,0,1,.85,1.7c-.23,1.35-.85,2-1.86,2a3.18,3.18,0,0,1-1-.25,3.32,3.32,0,0,0-1-.26,2,2,0,0,0-1.86.85,5.76,5.76,0,0,0-.68,2.37,33.06,33.06,0,0,0-.17,3.74,37.22,37.22,0,0,1-.34,4.75c-.23,2-.4,3.76-.51,5.17s-.17,2.52-.17,3.31a12.74,12.74,0,0,0,.51,2.8,12.74,12.74,0,0,1,.51,2.8,3.6,3.6,0,0,1-1.19,2.88l-.17,11.2a8.22,8.22,0,0,0,1.19.93,19.85,19.85,0,0,1,2.2,1.95,4.07,4.07,0,0,0-3.39.68,7.15,7.15,0,0,1,.51,1.7,3.35,3.35,0,0,1-.17,1,11.69,11.69,0,0,0-.34,1.18,13,13,0,0,1-.51,1.53c-1.36-.12-1.92-.68-1.7-1.7a10.45,10.45,0,0,1,.17-1.52,10.7,10.7,0,0,0,.17-1.53,1.32,1.32,0,0,0-.85-1.36,4.57,4.57,0,0,1-1.69,1c-.12.11-.2.17-.26.17s-.14.06-.25.17a2.73,2.73,0,0,1-1.87-1.19c-.45.46-1,1-1.69,1.61a17.39,17.39,0,0,1-2.72,1.95c-.23-1.69-.73-2.71-1.53-3.05h-3.05c-2.37,0-3.68.11-3.9.34-.57,1.58-1,2.43-1.36,2.54l-.42-.84c-.17-.34-.37-.8-.59-1.36-.8,0-1.25.34-1.36,1a12.14,12.14,0,0,0,.59,2.71,12.07,12.07,0,0,1,.59,2.72,2.2,2.2,0,0,1-2.2,2.54q-.67-.68-.51-3.39l.51-4.58a3.32,3.32,0,0,0-1.61-.77c-.74-.17-1.53-.34-2.38-.5s-1.64-.34-2.37-.51a3.27,3.27,0,0,1-1.61-.77,7.52,7.52,0,0,1,1.52-.25,15.53,15.53,0,0,1,2.72.08c1.58,0,2.65-.45,3.22-1.35-.23.22-.4-.23-.51-1.36a1.34,1.34,0,0,1,1.19-1.53l.34-10.86a3,3,0,0,1-.6-.84c-.16-.34-.36-.74-.59-1.19a2.77,2.77,0,0,0,1-1.7c0,.46-.34-.45-1-2.71l.51-16.8c-.23-.9-.45-2.12-.68-3.64a35.07,35.07,0,0,1-.34-5.18,26.59,26.59,0,0,0,.34-4.92c-.23-1.13-.42-2.57-.59-4.32a23,23,0,0,0-.6-3.82,18,18,0,0,1,.34-2.72,16.58,16.58,0,0,0,.34-2.71l.17-8L683,262.24c.22-.22-.06-.79-.85-1.69a4.11,4.11,0,0,0,0-2.38q-.68-.17-1.53-.42a9.75,9.75,0,0,1-2.2-1.11c.11-.56.76-1.33,2-2.29s1.78-1.66,1.78-2.12a6.44,6.44,0,0,0-.51-1.61,5.81,5.81,0,0,1-.51-2,5.73,5.73,0,0,1,.68-2.54c.79.45,1.36,1.69,1.7,3.73.22,2.37.56,3.79,1,4.24l3-.85,1.87,1a15.57,15.57,0,0,1,1.86-1.28,10.11,10.11,0,0,1,2.21-.93.45.45,0,0,0,.17.34.61.61,0,0,1,.17.43.94.94,0,0,0,.34.59,4.71,4.71,0,0,1,1.52-.68,12.82,12.82,0,0,1,2.89,1.7c.11.23.56-.06,1.35-.85a2.46,2.46,0,0,0,.94.42,3.4,3.4,0,0,1,.76.26,1.4,1.4,0,0,0,.51.17c1.13,0,1.7-.85,1.7-2.55l.16-4.24h1.36a8.39,8.39,0,0,0-.51,2.55c-.11,1.47.68,2.49,2.38,3.05a2.44,2.44,0,0,1,1,.17,3.66,3.66,0,0,0,1.35.51,14.4,14.4,0,0,1,1.87.51,23.18,23.18,0,0,1-2.54,1.61c-.57.28-.8.42-.68.42a1.44,1.44,0,0,1-1.19-.68l-1,1a17.09,17.09,0,0,1,.51,3.23c.11,1.35.23,3,.34,4.92q0,3.9.08,6.27a25.15,25.15,0,0,0,.26,3.23,7.13,7.13,0,0,1,1.36,4.41,3.51,3.51,0,0,0-.34,1.61,19.6,19.6,0,0,1-.17,2.29l-.34,11.87c0,2.38.56,3.57,1.7,3.57.78,0,1.69-.85,2.71-2.55s1.41-3,1.19-3.56q4.23-2.72,13.23-11.54T750,256.81c.11-.68-.17-1-.85-1a4,4,0,0,0-2.71,1l.84-.85c-.45-.33-.87-.65-1.27-.93s-.76-.53-1.1-.76a4.48,4.48,0,0,1,2.21-.85c.33.11.95.34,1.86.68a6.64,6.64,0,0,0,1.87.51,4.92,4.92,0,0,0,5.26-4.07,5.65,5.65,0,0,0,1-.77l1.45-1.27c.5-.45,1-.85,1.44-1.19a2.4,2.4,0,0,1,.85-.51c.56,0,1.18.46,1.86,1.36l-2.88,2.89a10.3,10.3,0,0,0,2.37,2.88c2.15-.91,2.89-1.36,2.21-1.36.11,0,.36.2.76.6s.71.59.94.59a7.83,7.83,0,0,0,1.86-.68,7.68,7.68,0,0,1,1.87-.68,6.89,6.89,0,0,1,1.52.26c.68.17,1.42.33,2.21.51s1.58.31,2.37.42a14.45,14.45,0,0,0,1.7.17l7.64.34a2.1,2.1,0,0,0,2-1A3.31,3.31,0,0,1,789.32,251.72ZM684.48,306.35a75.26,75.26,0,0,0-.34-8.31c-.12.79-.2,1.72-.26,2.8s-.2,2.34-.42,3.81l-.68,4.58q0,1.69.34,6t1,8.73Zm.17,63.62.51-6.28h-.51l-.51,6.28Zm2.71-18.83a2.32,2.32,0,0,0,.17-1.19,1.78,1.78,0,0,0-.17-1,1.87,1.87,0,0,0-.68,1.19C686.68,350.35,686.91,350.68,687.36,351.14Zm0,3.05h.51l-.34-2.21H687Zm0-72.78h.51v-1.53h-.51Zm3.9-17h.51v-2.72h-.51Zm1.53,59h.51V322.3h-.51Zm2.88,46.32c-1.69-1.36-2.6-2.1-2.71-2.21a8.49,8.49,0,0,0,1.52,2.21Zm-2-30H694v-4.58h-.51Zm.17-77h.51l-.17-5.26h-.51Zm0,38.34h.51l.34-15.95h-.51Zm1.86,61.07.34-3.39h-.51l-.34,3.39ZM699.24,276l.33-4.41h-.5l-.34,4.41Zm-.17,3.57h.5v-1.7h-.5Zm.67,38.67.17-1.52h-.34l-.33,1.52Zm-.34-58.52h.51v-1.19h-.51Zm.34,30h.51v-3.05h-.51Zm.68,48.52h.51l.17-2.2h-.51Zm.17,11.71h.34V341.8h-.51Zm2.55-76.68a1.47,1.47,0,0,0-1-.51c.22,0,.17.23-.17.68a2.4,2.4,0,0,0-.51.85,23.91,23.91,0,0,0,1.53,5.26ZM704.33,257a7.42,7.42,0,0,0-1.7-.51,5.52,5.52,0,0,0,1.7,2.72Zm-1.19-12.72,1.69.68-.17.34-1.52-.51ZM705,263.6c-.22-.57-.45-.85-.67-.85s-.29.12-.51.34c-.23.57.16,1.36,1.18,2.37Zm3.23,63.45h.51v-1h-.51Zm4.07-18.33a3.86,3.86,0,0,1-.68-.93c-.23-.39-.45-.82-.68-1.27a35.71,35.71,0,0,0,0,7,55,55,0,0,0,1,7.21Zm-.51-5.59.34-2.55h-.51l-.34,2.55ZM715,320.77h.51l.17-3.56h-.51Zm2-24.77c-1.13.45-1.7.91-1.7,1.36.11.23.28.68.51,1.36a22.67,22.67,0,0,0,1.19,2.71Zm1,8.14a.45.45,0,0,1-.17-.34,1,1,0,0,0-.17-.67l-.34-.68-.17.17a1.12,1.12,0,0,0-.34.84C716.88,303.8,717.27,304,718.07,304.14Zm1-9.67a1.15,1.15,0,0,1-.17.51,1.59,1.59,0,0,0-.17.68,3.62,3.62,0,0,0,.26.85c.17.45.36,1,.59,1.53s.43,1.1.6,1.61a4,4,0,0,1,.25,1.1c0-1,0-1.92.09-2.71s.08-1.47.08-2a6.57,6.57,0,0,1,.17-1.53Zm3.74,28.16a5.57,5.57,0,0,1-.51.43c-.23.17-.63.48-1.19.93,1,1,1.7,1.53,2,1.53Zm1.86-16.79.85-1.87h-.34l-1,1.7Zm.85-14.93H726l.17-3.56h-.51Zm1.19,41.39.51-4.91h-.51l-.51,4.91Zm2-8.65a9.19,9.19,0,0,0-.17-1.52,10.7,10.7,0,0,1-.17-1.53,2.13,2.13,0,0,0-.34.51,1.87,1.87,0,0,1-.33.51Zm-.84-18h.5v-1.36h-.5Zm1-14.59h.51l.17-2.37h-.51Zm1.7,45a5.83,5.83,0,0,0-.59-1.62,5.1,5.1,0,0,1-.6-1.78l-.51,3.91a2.26,2.26,0,0,0,1.36.51A1.38,1.38,0,0,0,730.62,336Zm2.38,3.22a6.64,6.64,0,0,0-.51-1.87,4.49,4.49,0,0,1-2,1.36,3.83,3.83,0,0,1,1.36,1.87c.45,1,.84,1.58,1.19,1.69Zm-2-14.76h.51l.17-8.14h-.51Zm7.63,13.4q-1.86.86-1.86,1.53c0,5.32.56,8.14,1.69,8.48Zm-1-13.23.16-4.24h-.5l-.17,4.24Zm1.52-49.37c-.23.12-.42.23-.59.34a4.14,4.14,0,0,1-.6.34v3.39a1.69,1.69,0,0,0,1.19-.33Zm2.55,13.41q-.18.68-.51,1.86a29.58,29.58,0,0,0-.68,3.06h1.36Zm.5,38.68a2.31,2.31,0,0,0-1.52-.85l-.17,5.43a10,10,0,0,0,1.53,5.25Zm.35-3.57h.5l-1.35-2.2-.34.17Zm1.35-51.91a11.61,11.61,0,0,0-.68,1.7,2.75,2.75,0,0,0,.34,1,2.54,2.54,0,0,1,.34,1Zm0,5.94a5.91,5.91,0,0,0-.17-1.1,6.11,6.11,0,0,1-.17-1.11c-.22.91-.34,1.31-.34,1.19C743.17,277.06,743.4,277.4,743.85,277.85Zm-.51,6.28h.51v-1.36h-.51Zm.68,73.62.34-1.52H744l-.51,1.52Zm.51-22.9H745l-.34-3.73h-.51Zm-.17,6.62h.51v-1.53h-.51Zm1-3.57h.51l-.34-2H745Zm3.73,1.7c-1-1.47-1.52-2-1.52-1.53a35.48,35.48,0,0,0,.84,10.18,3.5,3.5,0,0,0,.68-2ZM750.3,285a1.93,1.93,0,0,1-1.1-.42,2.16,2.16,0,0,0-.77-.42,1,1,0,0,1,.51.84c0-.34-.11-.05-.34.85l-.68,1.7a14,14,0,0,0,3.57-2.55ZM750.13,336h.34l-1.19-3.4-.51.17Zm0-64h.51l-.34-1.36H750Zm2,1.53q-.18.17-.51.42a8.28,8.28,0,0,0-.85.77l.34,5.59q.17-1,.42-2.37a21,21,0,0,1,.93-3.22ZM752,344.35a.67.67,0,0,0,.17.76,1.32,1.32,0,0,1,.33.77l-.17,8a12,12,0,0,0,1.19,5.09l.34-13.74Zm2.88,17.13q-1.36,4.59-1.36,4.92c0,.68.51,1.42,1.53,2.21Zm-.17-80.24c.23-.9.34-1.19.34-.85,0-.34-.23-.56-.68-.67C754.71,280.62,754.82,281.13,754.71,281.24Zm1.19,75,.17-7h-.51l-.17,7Zm2.88-99.42c-1.13.34-1.7.68-1.7,1a16.66,16.66,0,0,0,.17,1.95,14.71,14.71,0,0,1,.17,2,5.73,5.73,0,0,1-.51,1.53c-.22.45-.45,1-.67,1.53.22.22.28.9.17,2-.23.57.22,1,1.35,1.36.12-1.25.23-2.8.34-4.67S758.44,259.42,758.78,256.81Zm.51,100.77h.51v-3.9h-.51Zm1.7,13.74c.11-.56.19-1,.25-1.35a4.56,4.56,0,0,0,0-1.7,7,7,0,0,1-.08-1.19c-.23.57-.46,1.19-.68,1.87a19.16,19.16,0,0,1-1,2.37Zm.51-20,.33-.16-1.52-1.87-.34.34ZM760,365.38h.51V360H760Zm6.28-109.92c-.57.9-1,1.61-1.28,2.12a5.69,5.69,0,0,1-.59.93l-.17,8.82c1.13-.45,1.7-1,1.7-1.53q.17-4.4.17-6.95A20.38,20.38,0,0,1,766.25,255.46Zm0,114.34,1-1.53-.51-.17-.84,1.53Zm1.69-101.62h.51l-.17-5.09h-.51Zm3.23-7.63c-.46.22-.83.42-1.11.59a4.06,4.06,0,0,0-.76.59l1.36.34a1.86,1.86,0,0,1,.16-1Zm-.68,5.08,1.18-1.52-.34-.34-1.18,1.52Zm1.69-9.5q-1.7.51-1.86,1.53c0,.68.22,1,.68,1A4.16,4.16,0,0,0,772.18,256.13Zm1.53,2.89c-.11.11-.31.34-.59.68s-.49.56-.6.67l1,.34Zm5.09,0h-1.36v1.19Z" transform="translate(-49.93 -165.31)"/><path class="cls-1" d="M52.64,178.39c1,7.26,2,14.54,3,21.81L58.37,222c1.83,14.56,3.47,29.14,5.21,43.7,1.58,14.58,3.25,29.16,4.75,43.75l2.21,21.9c.67,7.3,1.4,14.6,2,21.91-1.05-7.26-2-14.53-3-21.8L66.8,309.66C65,295.1,63.33,280.52,61.6,266s-3.25-29.16-4.75-43.76l-2.21-21.89C54,193,53.24,185.71,52.64,178.39Z" transform="translate(-49.93 -165.31)"/><path class="cls-1" d="M247.84,320.17c-7.86-5.9-15.63-11.91-23.46-17.86l-23.32-18c-15.54-12-31-24.22-46.46-36.32s-30.83-24.39-46.17-36.68l-23-18.47c-7.61-6.21-15.27-12.37-22.85-18.63,7.86,5.9,15.64,11.91,23.46,17.86l23.33,18c15.54,12,31,24.21,46.45,36.32s30.84,24.39,46.17,36.68l23,18.47C232.6,307.75,240.26,313.91,247.84,320.17Z" transform="translate(-49.93 -165.31)"/><path class="cls-2" d="M168.32,346" transform="translate(-49.93 -165.31)"/><path class="cls-1" d="M125.66,280.08q5.55,6.53,10.8,13.28c3.52,4.48,6.94,9,10.35,13.6s6.73,9.2,10,13.87,6.47,9.39,9.55,14.2q-5.55-6.51-10.8-13.27c-3.52-4.48-6.94-9-10.35-13.61s-6.73-9.19-10-13.87S128.74,284.89,125.66,280.08Z" transform="translate(-49.93 -165.31)"/><path class="cls-1" d="M142.07,269.31q7,6.87,13.7,14c4.49,4.74,8.9,9.55,13.29,14.38s8.71,9.73,13,14.68,8.46,9.94,12.54,15.05q-7-6.89-13.7-14c-4.5-4.73-8.9-9.55-13.29-14.38s-8.71-9.72-13-14.67S146.15,274.41,142.07,269.31Z" transform="translate(-49.93 -165.31)"/><path class="cls-3" d="M171.13,359.93c13.27,13.3,28.66,24.57,45,34.17,8.13,4.89,16.64,9.13,25.2,13.25,8.65,3.93,17.41,7.67,26.37,10.9,35.79,13.11,73.51,20.93,111.57,24.58a562.69,562.69,0,0,0,57.35,2.5c19.15-.16,38.31-1.22,57.39-3.06s38.09-4.58,57-8.08a549.48,549.48,0,0,0,56-13.25,548.5,548.5,0,0,1-55.82,14.23q-28.24,5.76-56.93,9.09t-57.56,4.07a562.19,562.19,0,0,1-57.75-1.52c-38.41-3-76.65-10.23-113.25-22.91-9.16-3.13-18.14-6.78-27-10.64-8.81-4.05-17.58-8.23-26-13.1-16.92-9.56-33-20.87-47.11-34.53Z" transform="translate(-49.93 -165.31)"/><path class="cls-4" d="M191.62,339a257.94,257.94,0,0,0,36.59,33,253.5,253.5,0,0,0,42.43,25.36c7.44,3.63,15.14,6.68,22.9,9.6,7.81,2.76,15.71,5.29,23.75,7.37s16.17,3.83,24.37,5.22,16.48,2.37,24.79,3q-12.49-.5-24.93-2c-8.28-1.06-16.52-2.5-24.69-4.26s-16.25-4-24.26-6.48c-7.95-2.64-15.88-5.41-23.57-8.79a258.3,258.3,0,0,1-44.26-24.12,264.16,264.16,0,0,1-38.91-32.33Z" transform="translate(-49.93 -165.31)"/><path class="cls-5" d="M233.46,427.46a424.46,424.46,0,0,0,54,21.13,422.48,422.48,0,0,0,56.48,13.56,424.07,424.07,0,0,0,57.94,5.72,427.33,427.33,0,0,0,58.32-2.29,429.24,429.24,0,0,1-58.34,4.29,427.38,427.38,0,0,1-116.1-15.53,431,431,0,0,1-55.56-19.59Z" transform="translate(-49.93 -165.31)"/></svg>